<svg width="24" height="23" viewBox="0 0 24 23" fill="none" xmlns="http://www.w3.org/2000/svg">
<path d="M9.75933 20.9714C7.73917 22.9915 4.44831 22.9915 2.42819 20.9714C0.408077 18.9512 0.408025 15.6603 2.42819 13.6402L6.50108 9.56734C8.52124 7.54718 11.8121 7.54718 13.8322 9.56734C13.998 9.72866 14.0922 9.94944 14.0938 10.1807C14.0954 10.4119 14.0042 10.6341 13.8407 10.7976C13.6773 10.9611 13.4549 11.0523 13.2239 11.0507C12.9927 11.0491 12.7717 10.9549 12.6104 10.7892C11.2459 9.42473 9.08732 9.42473 7.72287 10.7892L3.64998 14.8621C2.28553 16.2265 2.28553 18.3851 3.64998 19.7496C5.01443 21.114 7.17304 21.1138 8.53749 19.7496L12.4067 15.8802V15.8804C12.568 15.7147 12.789 15.6204 13.0202 15.6188C13.2515 15.6172 13.4736 15.7084 13.6372 15.872C13.8005 16.0355 13.8917 16.2577 13.8901 16.4889C13.8885 16.7201 13.7942 16.9409 13.6285 17.1022L9.75933 20.9714ZM17.4978 13.2329C15.4776 15.2531 12.1868 15.2531 10.1666 13.2329V13.2331C10.0009 13.0718 9.90669 12.851 9.90509 12.6198C9.90368 12.3885 9.99469 12.1664 10.1582 12.0028C10.3217 11.8393 10.5439 11.7481 10.7752 11.7497C11.0064 11.7513 11.2272 11.8455 11.3885 12.0113C12.7529 13.3757 14.9116 13.3757 16.276 12.0113L20.3489 7.93839C21.7133 6.57394 21.7133 4.41533 20.3489 3.05087C18.9844 1.68642 16.8258 1.68642 15.4614 3.05087L11.5922 6.92005C11.4309 7.08579 11.2099 7.18021 10.9787 7.18181C10.7474 7.18342 10.5252 7.09221 10.3617 6.92869C10.1982 6.76516 10.107 6.54297 10.1086 6.31154C10.1102 6.08031 10.2044 5.85933 10.3704 5.69821L14.2395 1.82903C16.2597 -0.191138 19.5506 -0.191138 21.5707 1.82903C23.5908 3.84919 23.5908 7.14006 21.5707 9.16017L17.4978 13.2331L17.4978 13.2329Z" fill="#FFB800"/>
</svg>
